<?xml version="1.0" encoding="UTF-8" standalone="no"?>
<!-- Created with Inkscape (http://www.inkscape.org/) -->

<svg
   xmlns:dc="http://purl.org/dc/elements/1.1/"
   xmlns:cc="http://creativecommons.org/ns#"
   xmlns:rdf="http://www.w3.org/1999/02/22-rdf-syntax-ns#"
   xmlns:svg="http://www.w3.org/2000/svg"
   xmlns="http://www.w3.org/2000/svg"
   version="1.1"
   width="600"
   height="500"
   id="svg3153">
  <defs
     id="defs3155">
    <marker
       refX="0"
       refY="0"
       orient="auto"
       id="Arrow1Mend"
       style="overflow:visible">
      <path
         d="M 0,0 5,-5 -12.5,0 5,5 0,0 z"
         transform="matrix(-0.4,0,0,-0.4,-4,0)"
         id="path4048"
         style="fill-rule:evenodd;stroke:#000000;stroke-width:1pt" />
    </marker>
  </defs>
  <metadata
     id="metadata3158">
    <rdf:RDF>
      <cc:Work
         rdf:about="">
        <dc:format>image/svg+xml</dc:format>
        <dc:type
           rdf:resource="http://purl.org/dc/dcmitype/StillImage" />
        <dc:title></dc:title>
      </cc:Work>
    </rdf:RDF>
  </metadata>
  <g
     transform="translate(0,-552.36218)"
     id="layer1">
    <g
       transform="matrix(1.2174147,0,0,1.2174147,-209.70664,-284.36353)"
       id="g6067-6-4-7">
      <g
         transform="translate(122.04179,-82.797355)"
         id="g5342-9-1-2-4-9">
        <path
           d="m 131.09203,838.77085 29.8198,0 0,29.81981 -7.50365,10 -32.31615,0 0,-32.31225 z m -10,8 31.8198,0 0,31.81981 -31.8198,0 z"
           id="rect5234-6-8-4-9-83-7"
           style="color:#000000;fill:none;stroke:#ffffff;stroke-width:2;stroke-linecap:butt;stroke-linejoin:miter;stroke-miterlimit:4;stroke-opacity:1;stroke-dashoffset:0;marker:none;visibility:visible;display:inline;overflow:visible;enable-background:accumulate" />
        <path
           d="m 152.77926,144.62967 8.06544,-8.06543"
           transform="translate(0,702.36215)"
           id="path5340-8-0-4-6-7"
           style="fill:none;stroke:#ffffff;stroke-width:2;stroke-linecap:butt;stroke-linejoin:miter;stroke-miterlimit:4;stroke-opacity:1;stroke-dasharray:none" />
      </g>
      <text
         x="230.05235"
         y="813.13824"
         id="text5536-7-8-6"
         xml:space="preserve"
         style="font-size:18px;font-style:normal;font-variant:normal;font-weight:normal;font-stretch:normal;line-height:125%;letter-spacing:0px;word-spacing:0px;fill:#ffffff;fill-opacity:1;stroke:none;font-family:DejaVu Sans;-inkscape-font-specification:DejaVu Sans"><tspan
           x="230.05235"
           y="813.13824"
           id="tspan5538-5-2-8"
           style="fill:#ffffff;fill-opacity:1">Queue</tspan></text>
    </g>
    <g
       transform="matrix(1.2174147,0,0,1.2174147,-112.4429,-77.652657)"
       id="g6041-5-3-6">
      <path
         d="m 553.60711,799.24994 6.7e-4,60.58372 c -3.3e-4,6.89428 -11.51218,12.50586 -25.71276,12.50586 -14.20056,0 -25.71243,-5.61158 -25.70893,-12.4848 l -10e-4,-60.61178 m 51.4234,-0.059 c 0,6.92222 -11.51113,12.5338 -25.71169,12.5338 -14.20058,0 -25.71244,-5.61158 -25.71244,-12.5338 0,-6.92222 11.51115,-12.5338 25.71173,-12.5338 14.20056,0 25.7124,5.61158 25.7124,12.5338 z"
         id="path5057-3-3-8-2-86-6"
         style="color:#000000;fill:none;stroke:#ffffff;stroke-width:2.63572335;stroke-linecap:butt;stroke-linejoin:miter;stroke-miterlimit:4;stroke-opacity:1;stroke-dasharray:none;stroke-dashoffset:0;marker:none;visibility:visible;display:inline;overflow:visible;enable-background:accumulate" />
      <text
         x="509.57349"
         y="846.21796"
         id="text5485-7-7-7"
         xml:space="preserve"
         style="font-size:29.11111069px;font-style:normal;font-variant:normal;font-weight:normal;font-stretch:normal;line-height:125%;letter-spacing:0px;word-spacing:0px;fill:#ffffff;fill-opacity:1;stroke:none;font-family:Monospace;-inkscape-font-specification:Monospace"><tspan
           x="509.57349"
           y="846.21796"
           id="tspan5487-8-2-3"
           style="font-style:normal;font-variant:normal;font-weight:normal;font-stretch:normal;fill:#ffffff;fill-opacity:1;font-family:DejaVu Sans;-inkscape-font-specification:DejaVu Sans">S3</tspan></text>
    </g>
    <g
       transform="matrix(1.2174147,0,0,1.2174147,11.297603,-225.63882)"
       id="g6092-3-6-3">
      <g
         transform="translate(-36.25,12.75)"
         id="g5228-7-5-3">
        <path
           d="m 79,266 28.5,-28.5 7.97789,29.77388"
           transform="translate(0,702.36215)"
           id="path5220-9-0-0"
           style="fill:none;stroke:#ffffff;stroke-width:2;stroke-linecap:butt;stroke-linejoin:miter;stroke-miterlimit:4;stroke-opacity:1;stroke-dasharray:none" />
        <path
           d="m 107,237.5 6.74343,-25.16682 -22.545109,6.04094"
           transform="translate(0,702.36215)"
           id="path5222-6-2-5"
           style="fill:none;stroke:#ffffff;stroke-width:2;stroke-linecap:butt;stroke-linejoin:miter;stroke-miterlimit:4;stroke-opacity:1;stroke-dasharray:none" />
        <path
           d="m 114,212.5 9,18"
           transform="translate(0,702.36215)"
           id="path5224-3-5-4"
           style="fill:none;stroke:#ffffff;stroke-width:2;stroke-linecap:butt;stroke-linejoin:miter;stroke-miterlimit:4;stroke-opacity:1;stroke-dasharray:none" />
        <path
           d="m 131,201.5 a 12.75,12.25 0 1 1 -25.5,0 12.75,12.25 0 1 1 25.5,0 z"
           transform="translate(1.75,701.61215)"
           id="path5226-7-5-8"
           style="color:#000000;fill:none;stroke:#ffffff;stroke-width:2;stroke-linecap:butt;stroke-linejoin:miter;stroke-miterlimit:4;stroke-opacity:1;stroke-dasharray:none;stroke-dashoffset:0;marker:none;visibility:visible;display:inline;overflow:visible;enable-background:accumulate" />
      </g>
      <path
         d="m 81.75,951.1122 23.25,-2.25005 5.5972,-20.88902"
         id="path6086-5-9-6"
         style="fill:none;stroke:#ffffff;stroke-width:3.5;stroke-linecap:butt;stroke-linejoin:miter;stroke-miterlimit:4;stroke-opacity:1;stroke-dasharray:none" />
      <text
         x="30"
         y="1000.3621"
         id="text6088-6-3-7"
         xml:space="preserve"
         style="font-size:18px;font-style:normal;font-variant:normal;font-weight:normal;font-stretch:normal;line-height:125%;letter-spacing:0px;word-spacing:0px;fill:#ffffff;fill-opacity:1;stroke:none;font-family:DejaVu Sans;-inkscape-font-specification:DejaVu Sans"><tspan
           x="30"
           y="1000.3621"
           id="tspan6090-6-9-6"
           style="fill:#ffffff;fill-opacity:1">Developer</tspan></text>
    </g>
    <g
       transform="matrix(1.2174147,0,0,1.2174147,-136.77407,-499.31358)"
       id="g6046-3-1"
       style="fill:#c8deff;fill-opacity:1">
      <path
         d="m 505.70777,889.69233 c -21.42092,0 -39.7442,14.28116 -47.20531,34.50478 -5.35621,-2.36328 -11.30177,-3.62681 -17.54193,-3.62681 -21.03759,0 -38.54689,14.90134 -42.37532,34.65648 -2.69572,-0.66954 -5.52194,-1.00744 -8.42939,-1.00744 -18.93171,0 -34.26499,15.09594 -34.26499,33.69896 0,18.6038 15.33344,33.699 34.26499,33.699 5.9529,0 11.57043,-1.5076 16.44902,-4.1306 8.42042,8.4426 22.10277,13.9533 37.54534,13.9533 12.43839,0 23.70787,-3.5715 32.03188,-9.3693 7.15298,7.4965 17.16349,12.1398 28.25076,12.1398 14.40383,0 26.99474,-7.8603 33.85393,-19.5957 4.72249,2.656 10.0575,4.181 15.67421,4.181 19.63149,0 35.54059,-18.2222 35.54059,-40.70173 0,-21.64929 -14.77085,-39.32334 -33.39883,-40.60057 -3.15506,-26.96374 -24.52183,-47.80396 -50.3943,-47.80396 z"
         id="path4074-4-7-17"
         style="fill:none;stroke:#ffffff;stroke-width:3.26240063;stroke-linecap:round;stroke-linejoin:round;stroke-opacity:1" />
      <g
         transform="translate(370.40009,135.59866)"
         id="g5342-1-1-8"
         style="fill:#ffffff;fill-opacity:1">
        <path
           d="m 131.09203,838.77085 29.8198,0 0,29.81981 -7.50365,10 -32.31615,0 0,-32.31225 z m -10,8 31.8198,0 0,31.81981 -31.8198,0 z"
           id="rect5234-6-3-4-91"
           style="color:#000000;fill:none;stroke:#ffffff;stroke-width:2;stroke-linecap:butt;stroke-linejoin:miter;stroke-miterlimit:4;stroke-opacity:1;stroke-dashoffset:0;marker:none;visibility:visible;display:inline;overflow:visible;enable-background:accumulate" />
        <path
           d="m 152.77926,144.62967 8.06544,-8.06543"
           transform="translate(0,702.36215)"
           id="path5340-6-7-0"
           style="fill:#ffffff;fill-opacity:1;stroke:#ffffff;stroke-width:2;stroke-linecap:butt;stroke-linejoin:miter;stroke-miterlimit:4;stroke-opacity:1;stroke-dasharray:none" />
      </g>
      <g
         transform="translate(359.60898,62.042311)"
         id="g5342-5-8-4"
         style="fill:#ffffff;fill-opacity:1">
        <path
           d="m 131.09203,838.77085 29.8198,0 0,29.81981 -7.50365,10 -32.31615,0 0,-32.31225 z m -10,8 31.8198,0 0,31.81981 -31.8198,0 z"
           id="rect5234-6-7-6-7"
           style="color:#000000;fill:none;stroke:#ffffff;stroke-width:2;stroke-linecap:butt;stroke-linejoin:miter;stroke-miterlimit:4;stroke-opacity:1;stroke-dashoffset:0;marker:none;visibility:visible;display:inline;overflow:visible;enable-background:accumulate" />
        <path
           d="m 152.77926,144.62967 8.06544,-8.06543"
           transform="translate(0,702.36215)"
           id="path5340-64-4-5"
           style="fill:#ffffff;fill-opacity:1;stroke:#ffffff;stroke-width:2;stroke-linecap:butt;stroke-linejoin:miter;stroke-miterlimit:4;stroke-opacity:1;stroke-dasharray:none" />
      </g>
      <g
         transform="translate(297.76279,134.14585)"
         id="g5342-5-7-6-8"
         style="fill:#ffffff;fill-opacity:1">
        <path
           d="m 131.09203,838.77085 29.8198,0 0,29.81981 -7.50365,10 -32.31615,0 0,-32.31225 z m -10,8 31.8198,0 0,31.81981 -31.8198,0 z"
           id="rect5234-6-7-9-3-3"
           style="color:#000000;fill:none;stroke:#ffffff;stroke-width:2;stroke-linecap:butt;stroke-linejoin:miter;stroke-miterlimit:4;stroke-opacity:1;stroke-dashoffset:0;marker:none;visibility:visible;display:inline;overflow:visible;enable-background:accumulate" />
        <path
           d="m 152.77926,144.62967 8.06544,-8.06543"
           transform="translate(0,702.36215)"
           id="path5340-64-9-9-5"
           style="fill:#ffffff;fill-opacity:1;stroke:#ffffff;stroke-width:2;stroke-linecap:butt;stroke-linejoin:miter;stroke-miterlimit:4;stroke-opacity:1;stroke-dasharray:none" />
      </g>
      <text
         x="429.92096"
         y="961.85248"
         id="text6033-5-5"
         xml:space="preserve"
         style="font-size:18px;font-style:normal;font-variant:normal;font-weight:normal;font-stretch:normal;line-height:125%;letter-spacing:0px;word-spacing:0px;fill:#ffffff;fill-opacity:1;stroke:none;font-family:DejaVu Sans;-inkscape-font-specification:DejaVu Sans"><tspan
           x="429.92096"
           y="961.85248"
           id="tspan6035-2-5"
           style="fill:#ffffff;fill-opacity:1">EC2 Workers</tspan></text>
    </g>
    <text
       x="674.11182"
       y="483.36432"
       transform="matrix(0.82880857,0.55953227,-0.55953227,0.82880857,0,0)"
       id="text4479"
       xml:space="preserve"
       style="font-size:16px;font-style:normal;font-variant:normal;font-weight:normal;font-stretch:normal;line-height:125%;letter-spacing:0px;word-spacing:0px;fill:#ffffff;fill-opacity:1;stroke:none;font-family:Monospace;-inkscape-font-specification:Monospace"><tspan
         x="674.11182"
         y="483.36432"
         id="tspan4481">Redirect</tspan></text>
    <text
       x="291.77359"
       y="877.47205"
       transform="matrix(0.99751455,0.07046076,-0.07046076,0.99751455,0,0)"
       id="text4483"
       xml:space="preserve"
       style="font-size:16px;font-style:normal;font-variant:normal;font-weight:normal;font-stretch:normal;line-height:125%;letter-spacing:0px;word-spacing:0px;fill:#ffffff;fill-opacity:1;stroke:none;font-family:Monospace;-inkscape-font-specification:Monospace"><tspan
         x="291.77359"
         y="877.47205"
         id="tspan4485">GET &lt;signed-url&gt;</tspan></text>
    <text
       x="13.424511"
       y="816.43994"
       transform="matrix(0.99997619,0.0069012,-0.0069012,0.99997619,0,0)"
       id="text4487"
       xml:space="preserve"
       style="font-size:16px;font-style:normal;font-variant:normal;font-weight:normal;font-stretch:normal;line-height:125%;letter-spacing:0px;word-spacing:0px;fill:#ffffff;fill-opacity:1;stroke:none;font-family:Monospace;-inkscape-font-specification:Monospace"><tspan
         x="13.424511"
         y="816.43994"
         id="tspan4489">GET ../build.zip</tspan></text>
    <g
       id="g4730">
      <path
         d="m 132.28125,713.64343 -1.6875,1.71875 c 22.51413,22.34509 32.64576,51.47925 34.5625,82.5 1.91674,31.02075 -4.40928,63.87843 -14.84375,93.375 l 2.25,0.8125 c 10.51923,-29.73616 16.94323,-62.86304 15,-94.3125 -1.94323,-31.44946 -12.28153,-61.26671 -35.28125,-84.09375 z"
         id="path4542"
         style="font-size:medium;font-style:normal;font-variant:normal;font-weight:normal;font-stretch:normal;text-indent:0;text-align:start;text-decoration:none;line-height:normal;letter-spacing:normal;word-spacing:normal;text-transform:none;direction:ltr;block-progression:tb;writing-mode:lr-tb;text-anchor:start;baseline-shift:baseline;color:#000000;fill:#ffffff;fill-opacity:1;stroke:none;stroke-width:2.4000001;marker:none;visibility:visible;display:inline;overflow:visible;enable-background:accumulate;font-family:Sans;-inkscape-font-specification:Sans" />
      <path
         d="m 138.24233,721.26764 6.78817,-0.0256 -15.30537,-8.42767 8.54278,15.24143 -0.0256,-6.78818 z"
         id="path4736"
         style="fill:#ffffff;fill-opacity:1;fill-rule:evenodd;stroke:#ffffff;stroke-width:0.96000004pt;stroke-opacity:1" />
    </g>
    <g
       id="g4738">
      <path
         d="m 190.875,900.98718 c -11.8389,0.0134 -22.49952,0.31076 -31.65625,0.90625 l 0.15625,2.375 c 72.69863,-4.7278 243.42028,9.6994 328.84375,34.96875 l 0.6875,-2.3125 C 413.64121,914.66033 273.74729,900.8933 190.875,900.98718 z"
         id="path4544"
         style="font-size:medium;font-style:normal;font-variant:normal;font-weight:normal;font-stretch:normal;text-indent:0;text-align:start;text-decoration:none;line-height:normal;letter-spacing:normal;word-spacing:normal;text-transform:none;direction:ltr;block-progression:tb;writing-mode:lr-tb;text-anchor:start;baseline-shift:baseline;color:#000000;fill:#ffffff;fill-opacity:1;stroke:none;stroke-width:2.4000001;marker:none;visibility:visible;display:inline;overflow:visible;enable-background:accumulate;font-family:Sans;-inkscape-font-specification:Sans" />
      <path
         d="m 479.36576,935.35331 -5.96442,3.24126 17.47151,0.16269 -14.74835,-9.36836 3.24126,5.96441 z"
         id="path4744"
         style="fill:#ffffff;fill-opacity:1;fill-rule:evenodd;stroke:#ffffff;stroke-width:0.96000004pt;stroke-opacity:1" />
    </g>
    <g
       id="g4746">
      <path
         d="m 140,684.04968 5.75,4.3125 1.4375,-1.9375 -5.75,-4.3125 z m 11.5,8.625 5.78125,4.3125 1.4375,-1.90625 -5.75,-4.3125 z m 11.53125,8.65625 5.75,4.3125 1.4375,-1.9375 -5.75,-4.3125 z m 11.53125,8.625 5.75,4.3125 1.4375,-1.9375 -5.75,-4.3125 z m 11.53125,8.625 5.75,4.3125 1.4375,-1.9375 -5.75,-4.3125 z m 11.53125,8.625 5.78125,4.3125 1.4375,-1.9375 -5.78125,-4.3125 z m 11.5625,8.59375 5.78125,4.28125 1.40625,-1.90625 -5.75,-4.3125 z m 11.5625,8.59375 2.59375,1.9375 0.0312,0 3.15625,2.34375 1.40625,-1.9375 -3.15625,-2.3125 -2.625,-1.96875 z m 11.5625,8.5625 3.375,2.46875 2.4375,1.78125 1.40625,-1.9375 -2.4375,-1.78125 -3.34375,-2.46875 z m 11.625,8.5 3.6875,2.71875 2.125,1.53125 1.40625,-1.9375 -2.125,-1.53125 -3.6875,-2.6875 z m 11.65625,8.5 3.59375,2.625 0.0312,0 2.1875,1.59375 1.40625,-1.96875 -2.1875,-1.5625 -0.0312,0 -3.59375,-2.625 z m 11.6875,8.40625 3.15625,2.28125 0.0312,0.0312 2.65625,1.875 1.40625,-1.9375 -2.6875,-1.90625 -3.1875,-2.28125 z m 11.71875,8.375 2.40625,1.6875 3.5,2.4375 1.375,-1.96875 -3.5,-2.4375 -2.375,-1.6875 z m 11.8125,8.25 1.25,0.90625 4.65625,3.21875 1.375,-2 -4.65625,-3.1875 -1.25,-0.875 z m 11.84375,8.1875 5.96875,4.03125 1.34375,-1.96875 L 304,801.20593 z m 11.96875,8.0625 6,3.96875 1.3125,-2 -6,-3.96875 z m 12.03125,7.90625 5.8125,3.75 0.25,0.15625 1.28125,-2 -0.25,-0.1875 0,0.0312 -5.78125,-3.75 z m 12.15625,7.75 3.3125,2.09375 2.8125,1.71875 1.25,-2.03125 -2.78125,-1.71875 -0.0312,0 -3.28125,-2.09375 z m 12.28125,7.59375 0.5625,0.34375 5.625,3.34375 1.21875,-2.0625 -5.59375,-3.34375 -0.0312,0 -0.53125,-0.34375 z m 12.40625,7.34375 6.25,3.59375 1.1875,-2.09375 -6.25,-3.59375 z m 12.5625,7.09375 3.65625,2.0625 0.0312,0 2.625,1.40625 1.125,-2.125 -2.59375,-1.375 -0.0312,-0.0312 -3.65625,-2.03125 z m 12.65625,6.875 0.28125,0.15625 0.0312,0 6.125,3.125 1.09375,-2.125 -6.09375,-3.125 -0.0312,0 -0.25,-0.15625 z m 12.875,6.53125 6,2.9375 0,0.0312 0.0312,0 0.46875,0.21875 1.03125,-2.1875 -0.46875,-0.1875 -0.0312,-0.0312 -5.96875,-2.9375 z m 13,6.25 2.375,1.09375 0,0.0312 4.21875,1.875 0.96875,-2.1875 -4.1875,-1.90625 0,0.0312 -2.34375,-1.125 z m 13.1875,5.9375 6.625,2.8125 0.9375,-2.1875 -6.625,-2.84375 z m 13.28125,5.5625 4.53125,1.84375 0.0312,0 2.15625,0.84375 0.875,-2.25 -2.15625,-0.8125 -0.0312,0 0,-0.0312 -4.5,-1.8125 z m 13.4375,5.28125 0.90625,0.34375 0.0312,0 5.84375,2.15625 0.8125,-2.25 -5.8125,-2.125 -0.0312,0 0,-0.0312 -0.875,-0.34375 z m 13.5625,4.9375 6.8125,2.34375 0.78125,-2.25 -6.8125,-2.375 z m 13.65625,4.625 4.34375,1.4375 0.75,-2.28125 -4.34375,-1.4375 z"
         id="path4546"
         style="font-size:medium;font-style:normal;font-variant:normal;font-weight:normal;font-stretch:normal;text-indent:0;text-align:start;text-decoration:none;line-height:normal;letter-spacing:normal;word-spacing:normal;text-transform:none;direction:ltr;block-progression:tb;writing-mode:lr-tb;text-anchor:start;baseline-shift:baseline;color:#000000;fill:#ffffff;fill-opacity:1;stroke:none;stroke-width:2.4000001;marker:none;visibility:visible;display:inline;overflow:visible;enable-background:accumulate;font-family:Sans;-inkscape-font-specification:Sans" />
      <path
         d="m 477.28769,892.28602 -6.0371,3.10379 17.4632,0.56285 -14.52989,-9.70373 3.10379,6.03709 z"
         id="path4752"
         style="fill:#ffffff;fill-opacity:1;fill-rule:evenodd;stroke:#ffffff;stroke-width:0.96000004pt;stroke-opacity:1" />
    </g>
  </g>
</svg>
