<?xml version="1.0" encoding="UTF-8" standalone="no"?>
<!-- Created with Inkscape (http://www.inkscape.org/) -->

<svg
   xmlns:dc="http://purl.org/dc/elements/1.1/"
   xmlns:cc="http://creativecommons.org/ns#"
   xmlns:rdf="http://www.w3.org/1999/02/22-rdf-syntax-ns#"
   xmlns:svg="http://www.w3.org/2000/svg"
   xmlns="http://www.w3.org/2000/svg"
   version="1.1"
   width="600"
   height="500"
   id="svg3153">
  <defs
     id="defs3155">
    <marker
       refX="0"
       refY="0"
       orient="auto"
       id="Arrow1Mend"
       style="overflow:visible">
      <path
         d="M 0,0 5,-5 -12.5,0 5,5 0,0 z"
         transform="matrix(-0.4,0,0,-0.4,-4,0)"
         id="path4048"
         style="fill-rule:evenodd;stroke:#000000;stroke-width:1pt" />
    </marker>
  </defs>
  <metadata
     id="metadata3158">
    <rdf:RDF>
      <cc:Work
         rdf:about="">
        <dc:format>image/svg+xml</dc:format>
        <dc:type
           rdf:resource="http://purl.org/dc/dcmitype/StillImage" />
        <dc:title></dc:title>
      </cc:Work>
    </rdf:RDF>
  </metadata>
  <g
     transform="translate(0,-552.36218)"
     id="layer1">
    <g
       transform="matrix(1.2174147,0,0,1.2174147,-209.70664,-284.36353)"
       id="g6067-6-4-7">
      <g
         transform="translate(122.04179,-82.797355)"
         id="g5342-9-1-2-4-9">
        <path
           d="m 131.09203,838.77085 29.8198,0 0,29.81981 -7.50365,10 -32.31615,0 0,-32.31225 z m -10,8 31.8198,0 0,31.81981 -31.8198,0 z"
           id="rect5234-6-8-4-9-83-7"
           style="color:#000000;fill:none;stroke:#ffffff;stroke-width:2;stroke-linecap:butt;stroke-linejoin:miter;stroke-miterlimit:4;stroke-opacity:1;stroke-dashoffset:0;marker:none;visibility:visible;display:inline;overflow:visible;enable-background:accumulate" />
        <path
           d="m 152.77926,144.62967 8.06544,-8.06543"
           transform="translate(0,702.36215)"
           id="path5340-8-0-4-6-7"
           style="fill:none;stroke:#ffffff;stroke-width:2;stroke-linecap:butt;stroke-linejoin:miter;stroke-miterlimit:4;stroke-opacity:1;stroke-dasharray:none" />
      </g>
      <text
         x="230.05235"
         y="813.13824"
         id="text5536-7-8-6"
         xml:space="preserve"
         style="font-size:18px;font-style:normal;font-variant:normal;font-weight:normal;font-stretch:normal;line-height:125%;letter-spacing:0px;word-spacing:0px;fill:#ffffff;fill-opacity:1;stroke:none;font-family:DejaVu Sans;-inkscape-font-specification:DejaVu Sans"><tspan
           x="230.05235"
           y="813.13824"
           id="tspan5538-5-2-8"
           style="fill:#ffffff;fill-opacity:1">Queue</tspan></text>
    </g>
    <g
       transform="matrix(1.2174147,0,0,1.2174147,108.98567,-120.5098)"
       id="g6041-5-3-6">
      <path
         d="m 553.60711,799.24994 6.7e-4,60.58372 c -3.3e-4,6.89428 -11.51218,12.50586 -25.71276,12.50586 -14.20056,0 -25.71243,-5.61158 -25.70893,-12.4848 l -10e-4,-60.61178 m 51.4234,-0.059 c 0,6.92222 -11.51113,12.5338 -25.71169,12.5338 -14.20058,0 -25.71244,-5.61158 -25.71244,-12.5338 0,-6.92222 11.51115,-12.5338 25.71173,-12.5338 14.20056,0 25.7124,5.61158 25.7124,12.5338 z"
         id="path5057-3-3-8-2-86-6"
         style="color:#000000;fill:none;stroke:#ffffff;stroke-width:2.63572335;stroke-linecap:butt;stroke-linejoin:miter;stroke-miterlimit:4;stroke-opacity:1;stroke-dasharray:none;stroke-dashoffset:0;marker:none;visibility:visible;display:inline;overflow:visible;enable-background:accumulate" />
      <text
         x="509.57349"
         y="846.21796"
         id="text5485-7-7-7"
         xml:space="preserve"
         style="font-size:29.11111069px;font-style:normal;font-variant:normal;font-weight:normal;font-stretch:normal;line-height:125%;letter-spacing:0px;word-spacing:0px;fill:#ffffff;fill-opacity:1;stroke:none;font-family:Monospace;-inkscape-font-specification:Monospace"><tspan
           x="509.57349"
           y="846.21796"
           id="tspan5487-8-2-3"
           style="font-style:normal;font-variant:normal;font-weight:normal;font-stretch:normal;fill:#ffffff;fill-opacity:1;font-family:DejaVu Sans;-inkscape-font-specification:DejaVu Sans">S3</tspan></text>
    </g>
    <g
       transform="matrix(1.2174147,0,0,1.2174147,11.297603,-225.63882)"
       id="g6092-3-6-3">
      <g
         transform="translate(-36.25,12.75)"
         id="g5228-7-5-3">
        <path
           d="m 79,266 28.5,-28.5 7.97789,29.77388"
           transform="translate(0,702.36215)"
           id="path5220-9-0-0"
           style="fill:none;stroke:#ffffff;stroke-width:2;stroke-linecap:butt;stroke-linejoin:miter;stroke-miterlimit:4;stroke-opacity:1;stroke-dasharray:none" />
        <path
           d="m 107,237.5 6.74343,-25.16682 -22.545109,6.04094"
           transform="translate(0,702.36215)"
           id="path5222-6-2-5"
           style="fill:none;stroke:#ffffff;stroke-width:2;stroke-linecap:butt;stroke-linejoin:miter;stroke-miterlimit:4;stroke-opacity:1;stroke-dasharray:none" />
        <path
           d="m 114,212.5 9,18"
           transform="translate(0,702.36215)"
           id="path5224-3-5-4"
           style="fill:none;stroke:#ffffff;stroke-width:2;stroke-linecap:butt;stroke-linejoin:miter;stroke-miterlimit:4;stroke-opacity:1;stroke-dasharray:none" />
        <path
           d="m 131,201.5 a 12.75,12.25 0 1 1 -25.5,0 12.75,12.25 0 1 1 25.5,0 z"
           transform="translate(1.75,701.61215)"
           id="path5226-7-5-8"
           style="color:#000000;fill:none;stroke:#ffffff;stroke-width:2;stroke-linecap:butt;stroke-linejoin:miter;stroke-miterlimit:4;stroke-opacity:1;stroke-dasharray:none;stroke-dashoffset:0;marker:none;visibility:visible;display:inline;overflow:visible;enable-background:accumulate" />
      </g>
      <path
         d="m 81.75,951.1122 23.25,-2.25005 5.5972,-20.88902"
         id="path6086-5-9-6"
         style="fill:none;stroke:#ffffff;stroke-width:3.5;stroke-linecap:butt;stroke-linejoin:miter;stroke-miterlimit:4;stroke-opacity:1;stroke-dasharray:none" />
      <text
         x="30"
         y="1000.3621"
         id="text6088-6-3-7"
         xml:space="preserve"
         style="font-size:18px;font-style:normal;font-variant:normal;font-weight:normal;font-stretch:normal;line-height:125%;letter-spacing:0px;word-spacing:0px;fill:#ffffff;fill-opacity:1;stroke:none;font-family:DejaVu Sans;-inkscape-font-specification:DejaVu Sans"><tspan
           x="30"
           y="1000.3621"
           id="tspan6090-6-9-6"
           style="fill:#ffffff;fill-opacity:1">Developer</tspan></text>
    </g>
    <g
       transform="matrix(1.2174147,0,0,1.2174147,-136.77407,-499.31358)"
       id="g6046-3-1"
       style="fill:#c8deff;fill-opacity:1">
      <path
         d="m 505.70777,889.69233 c -21.42092,0 -39.7442,14.28116 -47.20531,34.50478 -5.35621,-2.36328 -11.30177,-3.62681 -17.54193,-3.62681 -21.03759,0 -38.54689,14.90134 -42.37532,34.65648 -2.69572,-0.66954 -5.52194,-1.00744 -8.42939,-1.00744 -18.93171,0 -34.26499,15.09594 -34.26499,33.69896 0,18.6038 15.33344,33.699 34.26499,33.699 5.9529,0 11.57043,-1.5076 16.44902,-4.1306 8.42042,8.4426 22.10277,13.9533 37.54534,13.9533 12.43839,0 23.70787,-3.5715 32.03188,-9.3693 7.15298,7.4965 17.16349,12.1398 28.25076,12.1398 14.40383,0 26.99474,-7.8603 33.85393,-19.5957 4.72249,2.656 10.0575,4.181 15.67421,4.181 19.63149,0 35.54059,-18.2222 35.54059,-40.70173 0,-21.64929 -14.77085,-39.32334 -33.39883,-40.60057 -3.15506,-26.96374 -24.52183,-47.80396 -50.3943,-47.80396 z"
         id="path4074-4-7-17"
         style="fill:none;stroke:#ffffff;stroke-width:3.26240063;stroke-linecap:round;stroke-linejoin:round;stroke-opacity:1" />
      <g
         transform="translate(370.40009,135.59866)"
         id="g5342-1-1-8"
         style="fill:#ffffff;fill-opacity:1">
        <path
           d="m 131.09203,838.77085 29.8198,0 0,29.81981 -7.50365,10 -32.31615,0 0,-32.31225 z m -10,8 31.8198,0 0,31.81981 -31.8198,0 z"
           id="rect5234-6-3-4-91"
           style="color:#000000;fill:none;stroke:#ffffff;stroke-width:2;stroke-linecap:butt;stroke-linejoin:miter;stroke-miterlimit:4;stroke-opacity:1;stroke-dashoffset:0;marker:none;visibility:visible;display:inline;overflow:visible;enable-background:accumulate" />
        <path
           d="m 152.77926,144.62967 8.06544,-8.06543"
           transform="translate(0,702.36215)"
           id="path5340-6-7-0"
           style="fill:#ffffff;fill-opacity:1;stroke:#ffffff;stroke-width:2;stroke-linecap:butt;stroke-linejoin:miter;stroke-miterlimit:4;stroke-opacity:1;stroke-dasharray:none" />
      </g>
      <g
         transform="translate(359.60898,62.042311)"
         id="g5342-5-8-4"
         style="fill:#ffffff;fill-opacity:1">
        <path
           d="m 131.09203,838.77085 29.8198,0 0,29.81981 -7.50365,10 -32.31615,0 0,-32.31225 z m -10,8 31.8198,0 0,31.81981 -31.8198,0 z"
           id="rect5234-6-7-6-7"
           style="color:#000000;fill:none;stroke:#ffffff;stroke-width:2;stroke-linecap:butt;stroke-linejoin:miter;stroke-miterlimit:4;stroke-opacity:1;stroke-dashoffset:0;marker:none;visibility:visible;display:inline;overflow:visible;enable-background:accumulate" />
        <path
           d="m 152.77926,144.62967 8.06544,-8.06543"
           transform="translate(0,702.36215)"
           id="path5340-64-4-5"
           style="fill:#ffffff;fill-opacity:1;stroke:#ffffff;stroke-width:2;stroke-linecap:butt;stroke-linejoin:miter;stroke-miterlimit:4;stroke-opacity:1;stroke-dasharray:none" />
      </g>
      <g
         transform="translate(297.76279,134.14585)"
         id="g5342-5-7-6-8"
         style="fill:#ffffff;fill-opacity:1">
        <path
           d="m 131.09203,838.77085 29.8198,0 0,29.81981 -7.50365,10 -32.31615,0 0,-32.31225 z m -10,8 31.8198,0 0,31.81981 -31.8198,0 z"
           id="rect5234-6-7-9-3-3"
           style="color:#000000;fill:none;stroke:#ffffff;stroke-width:2;stroke-linecap:butt;stroke-linejoin:miter;stroke-miterlimit:4;stroke-opacity:1;stroke-dashoffset:0;marker:none;visibility:visible;display:inline;overflow:visible;enable-background:accumulate" />
        <path
           d="m 152.77926,144.62967 8.06544,-8.06543"
           transform="translate(0,702.36215)"
           id="path5340-64-9-9-5"
           style="fill:#ffffff;fill-opacity:1;stroke:#ffffff;stroke-width:2;stroke-linecap:butt;stroke-linejoin:miter;stroke-miterlimit:4;stroke-opacity:1;stroke-dasharray:none" />
      </g>
      <text
         x="429.92096"
         y="961.85248"
         id="text6033-5-5"
         xml:space="preserve"
         style="font-size:18px;font-style:normal;font-variant:normal;font-weight:normal;font-stretch:normal;line-height:125%;letter-spacing:0px;word-spacing:0px;fill:#ffffff;fill-opacity:1;stroke:none;font-family:DejaVu Sans;-inkscape-font-specification:DejaVu Sans"><tspan
           x="429.92096"
           y="961.85248"
           id="tspan6035-2-5"
           style="fill:#ffffff;fill-opacity:1">EC2 Workers</tspan></text>
    </g>
    <g
       id="g4497">
      <path
         d="m 128.84375,719.3125 -2,1.8125 c 19.83091,21.78355 33.53332,42.68905 39.4375,68.84375 5.90418,26.1547 4.01795,57.67609 -7.59375,100.625 l 2.625,0.6875 c 11.6794,-43.19933 13.62752,-75.17746 7.59375,-101.90625 -6.03377,-26.72879 -20.06837,-48.09967 -40.0625,-70.0625 z"
         id="path3261"
         style="font-size:medium;font-style:normal;font-variant:normal;font-weight:normal;font-stretch:normal;text-indent:0;text-align:start;text-decoration:none;line-height:normal;letter-spacing:normal;word-spacing:normal;text-transform:none;direction:ltr;block-progression:tb;writing-mode:lr-tb;text-anchor:start;baseline-shift:baseline;color:#000000;fill:#ffffff;fill-opacity:1;stroke:none;stroke-width:2.70000005;marker:none;visibility:visible;display:inline;overflow:visible;enable-background:accumulate;font-family:Sans;-inkscape-font-specification:Sans" />
      <path
         d="m 135.12756,728.20562 7.62836,0.35794 -16.71639,-10.34081 8.73009,17.61123 0.35794,-7.62836 z"
         id="path4503"
         style="fill:#ffffff;fill-opacity:1;fill-rule:evenodd;stroke:#ffffff;stroke-width:1.08000002pt;stroke-opacity:1" />
    </g>
    <g
       id="g4505">
      <path
         d="m 177.6875,651.71875 0.0312,2.6875 5.3125,-0.0625 0.0312,0 2.71875,0.0312 0.0312,-2.6875 -2.75,-0.0312 -0.0312,0 z m 16.15625,2.875 3.15625,0.125 0.0312,0 4.875,0.28125 0.15625,-2.6875 -4.90625,-0.28125 -0.0312,-0.0312 -3.15625,-0.0937 z M 167.25,652.1875 l -0.0312,0 -2.875,0.25 -0.0312,0 -2.75,0.28125 -0.0312,0 -0.15625,0.0312 0.34375,2.65625 0.125,0 0.0312,0 2.71875,-0.28125 2.8125,-0.25 0.0312,0 2.28125,-0.15625 -0.1875,-2.6875 z m 42.71875,3.4375 2,0.15625 0.0312,0 6,0.625 0.28125,-2.6875 -6.03125,-0.625 -0.0312,0 -2.03125,-0.15625 z m -58.40625,-1.28125 -0.0312,0 -0.0312,0 -2.15625,0.53125 -0.0312,0 -2.0625,0.5625 -0.0312,0.0312 -1.90625,0.59375 0.8125,2.59375 1.84375,-0.59375 0.0625,-0.0312 1.9375,-0.53125 0.0625,0 2.0625,-0.5 0.0625,-0.0312 1.65625,-0.34375 -0.53125,-2.625 z m 74.4375,3 1.71875,0.1875 0.0312,0 6.28125,0.875 0.375,-2.65625 -6.3125,-0.875 -0.0312,-0.0312 -1.71875,-0.1875 z m 16,2.3125 1.96875,0.3125 0.0312,0 5.9375,1.0625 0.5,-2.65625 -6,-1.0625 -0.0312,0 -2,-0.3125 z m 15.875,2.90625 2.53125,0.5 0.0312,0 5.34375,1.1875 0.5625,-2.65625 -5.3437,-1.15625 -0.0312,0 -2.5625,-0.53125 z m 15.78125,3.5 3.1875,0.75 4.625,1.21875 0.6875,-2.625 -4.65625,-1.1875 -0.0312,-0.0312 -3.1875,-0.75 z m 15.59375,4.09375 3.6875,1.0625 0.0312,0 4,1.25 0.8125,-2.59375 -4.0625,-1.25 -0.0312,0 L 290,667.5625 z m 15.40625,4.78125 3.8125,1.3125 0.0312,0 3.71875,1.34375 0.0312,0 0.46875,-1.28125 0.5,-1.25 -0.0312,0 -0.0312,0 -3.78125,-1.375 -3.84375,-1.3125 z m 15.125,5.5625 3.375,1.375 0.0312,0 3.46875,1.5 0.0312,0 0.53125,0.25 1.09375,-2.46875 -0.53125,-0.25 -0.0312,0 -3.53125,-1.5 0,-0.0312 -0.0312,0 -3.375,-1.375 z m 14.71875,6.53125 2.21875,1.09375 0.0312,0 3.1875,1.65625 0,-0.0312 1.71875,0.96875 1.28125,-2.375 -1.71875,-0.9375 -0.0312,-0.0312 -3.21875,-1.65625 -0.0312,0 -2.25,-1.125 z m 14.125,7.71875 0.3125,0.1875 0.0312,0 2.78125,1.78125 0.0312,0.0312 2.65625,1.8125 0.0312,0 0.8125,0.59375 1.5625,-2.1875 -0.8436,-0.5937 0,-0.0312 -0.0312,0 -2.7188,-1.8438 0,-0.0312 -0.0312,0 -2.84375,-1.8125 0,-0.0312 -0.375,-0.1875 z m 13,9.3125 0.21875,0.1875 0.0312,0.0312 2.21875,1.9375 1.8125,-2 -2.28125,-2 0,-0.0312 -0.0312,0 -0.28125,-0.21875 z"
         id="path3263"
         style="font-size:medium;font-style:normal;font-variant:normal;font-weight:normal;font-stretch:normal;text-indent:0;text-align:start;text-decoration:none;line-height:normal;letter-spacing:normal;word-spacing:normal;text-transform:none;direction:ltr;block-progression:tb;writing-mode:lr-tb;text-anchor:start;baseline-shift:baseline;color:#000000;fill:#ffffff;fill-opacity:1;stroke:none;stroke-width:2.70000005;marker:none;visibility:visible;display:inline;overflow:visible;enable-background:accumulate;font-family:Sans;-inkscape-font-specification:Sans" />
      <path
         d="m 357.02699,697.93432 -7.629,0.344 17.59526,8.76224 -10.31027,-16.73524 0.34401,7.629 z"
         id="path4511"
         style="fill:#ffffff;fill-opacity:1;fill-rule:evenodd;stroke:#ffffff;stroke-width:1.08000002pt;stroke-opacity:1" />
    </g>
    <g
       id="g4513">
      <path
         d="m 388.1875,744.42468 c -52.34975,72.19269 -129.12743,122.8095 -227.125,149.5 l 0.71875,2.59375 c 98.48789,-26.82404 175.85934,-77.77685 228.59375,-150.5 l -2.1875,-1.59375 z"
         id="path3265"
         style="font-size:medium;font-style:normal;font-variant:normal;font-weight:normal;font-stretch:normal;text-indent:0;text-align:start;text-decoration:none;line-height:normal;letter-spacing:normal;word-spacing:normal;text-transform:none;direction:ltr;block-progression:tb;writing-mode:lr-tb;text-anchor:start;baseline-shift:baseline;color:#000000;fill:#ffffff;fill-opacity:1;stroke:none;stroke-width:2.70000005;marker:none;visibility:visible;display:inline;overflow:visible;enable-background:accumulate;font-family:Sans;-inkscape-font-specification:Sans" />
      <path
         d="m 382.94566,753.96253 1.20159,7.54164 6.72347,-18.47065 -15.46669,12.1306 7.54163,-1.20159 z"
         id="path4519"
         style="fill:#ffffff;fill-opacity:1;fill-rule:evenodd;stroke:#ffffff;stroke-width:1.08000002pt;stroke-opacity:1" />
    </g>
    <text
       x="273.74429"
       y="611.16382"
       transform="matrix(0.99188489,0.12713912,-0.12713912,0.99188489,0,0)"
       id="text4479"
       xml:space="preserve"
       style="font-size:16px;font-style:normal;font-variant:normal;font-weight:normal;font-stretch:normal;line-height:125%;letter-spacing:0px;word-spacing:0px;fill:#ffffff;fill-opacity:1;stroke:none;font-family:Monospace;-inkscape-font-specification:Monospace"><tspan
         x="273.74429"
         y="611.16382"
         id="tspan4481">Redirect</tspan></text>
    <text
       x="-228.80263"
       y="861.1153"
       transform="matrix(0.87636278,-0.48165162,0.48165162,0.87636278,0,0)"
       id="text4483"
       xml:space="preserve"
       style="font-size:16px;font-style:normal;font-variant:normal;font-weight:normal;font-stretch:normal;line-height:125%;letter-spacing:0px;word-spacing:0px;fill:#ffffff;fill-opacity:1;stroke:none;font-family:Monospace;-inkscape-font-specification:Monospace"><tspan
         x="-228.80263"
         y="861.1153"
         id="tspan4485">GET ../&lt;token&gt;</tspan></text>
    <text
       x="20.826485"
       y="853.96118"
       transform="matrix(0.99997619,0.0069012,-0.0069012,0.99997619,0,0)"
       id="text4487"
       xml:space="preserve"
       style="font-size:16px;font-style:normal;font-variant:normal;font-weight:normal;font-stretch:normal;line-height:125%;letter-spacing:0px;word-spacing:0px;fill:#ffffff;fill-opacity:1;stroke:none;font-family:Monospace;-inkscape-font-specification:Monospace"><tspan
         x="20.826485"
         y="853.96118"
         id="tspan4489">GET ../live.log</tspan></text>
  </g>
</svg>
