<?xml version="1.0" encoding="UTF-8" standalone="no"?>
<!-- Created with Inkscape (http://www.inkscape.org/) -->

<svg
   xmlns:dc="http://purl.org/dc/elements/1.1/"
   xmlns:cc="http://creativecommons.org/ns#"
   xmlns:rdf="http://www.w3.org/1999/02/22-rdf-syntax-ns#"
   xmlns:svg="http://www.w3.org/2000/svg"
   xmlns="http://www.w3.org/2000/svg"
   xmlns:sodipodi="http://sodipodi.sourceforge.net/DTD/sodipodi-0.dtd"
   xmlns:inkscape="http://www.inkscape.org/namespaces/inkscape"
   width="600"
   height="500"
   id="svg3153"
   version="1.1"
   inkscape:version="0.48.3.1 r9886"
   sodipodi:docname="livelog-redirect2.svg">
  <defs
     id="defs3155">
    <marker
       inkscape:stockid="Arrow1Mend"
       orient="auto"
       refY="0.0"
       refX="0.0"
       id="Arrow1Mend"
       style="overflow:visible;">
      <path
         id="path4048"
         d="M 0.0,0.0 L 5.0,-5.0 L -12.5,0.0 L 5.0,5.0 L 0.0,0.0 z "
         style="fill-rule:evenodd;stroke:#000000;stroke-width:1.0pt;"
         transform="scale(0.4) rotate(180) translate(10,0)" />
    </marker>
    <inkscape:perspective
       sodipodi:type="inkscape:persp3d"
       inkscape:vp_x="0 : 250 : 1"
       inkscape:vp_y="0 : 1000 : 0"
       inkscape:vp_z="600 : 250 : 1"
       inkscape:persp3d-origin="300 : 166.66667 : 1"
       id="perspective3161" />
  </defs>
  <sodipodi:namedview
     id="base"
     pagecolor="#333333"
     bordercolor="#666666"
     borderopacity="1.0"
     inkscape:pageopacity="0.66666667"
     inkscape:pageshadow="2"
     inkscape:zoom="1.4"
     inkscape:cx="268.91754"
     inkscape:cy="221.65746"
     inkscape:document-units="px"
     inkscape:current-layer="layer1"
     showgrid="false"
     showguides="true"
     inkscape:guide-bbox="true"
     inkscape:window-width="1920"
     inkscape:window-height="1025"
     inkscape:window-x="0"
     inkscape:window-y="27"
     inkscape:window-maximized="1" />
  <metadata
     id="metadata3158">
    <rdf:RDF>
      <cc:Work
         rdf:about="">
        <dc:format>image/svg+xml</dc:format>
        <dc:type
           rdf:resource="http://purl.org/dc/dcmitype/StillImage" />
        <dc:title></dc:title>
      </cc:Work>
    </rdf:RDF>
  </metadata>
  <g
     inkscape:label="Layer 1"
     inkscape:groupmode="layer"
     id="layer1"
     transform="translate(0,-552.36218)">
    <g
       id="g6067-6-4-7"
       transform="matrix(1.2174147,0,0,1.2174147,-209.70664,-284.36353)">
      <g
         id="g5342-9-1-2-4-9"
         transform="translate(122.04179,-82.797355)">
        <path
           style="color:#000000;fill:none;stroke:#ffffff;stroke-width:2;stroke-linecap:butt;stroke-linejoin:miter;stroke-miterlimit:4;stroke-opacity:1;stroke-dashoffset:0;marker:none;visibility:visible;display:inline;overflow:visible;enable-background:accumulate"
           id="rect5234-6-8-4-9-83-7"
           d="m 131.09203,838.77085 29.8198,0 0,29.81981 -7.50365,10 -32.31615,0 0,-32.31225 z m -10,8 31.8198,0 0,31.81981 -31.8198,0 z"
           inkscape:connector-curvature="0" />
        <path
           style="fill:none;stroke:#ffffff;stroke-width:2;stroke-linecap:butt;stroke-linejoin:miter;stroke-miterlimit:4;stroke-opacity:1;stroke-dasharray:none"
           id="path5340-8-0-4-6-7"
           transform="translate(0,702.36215)"
           d="m 152.77926,144.62967 8.06544,-8.06543"
           inkscape:connector-curvature="0" />
      </g>
      <text
         style="font-size:18px;font-style:normal;font-variant:normal;font-weight:normal;font-stretch:normal;line-height:125%;letter-spacing:0px;word-spacing:0px;fill:#ffffff;fill-opacity:1;stroke:none;font-family:DejaVu Sans;-inkscape-font-specification:DejaVu Sans"
         xml:space="preserve"
         id="text5536-7-8-6"
         y="813.13824"
         x="230.05235"
         sodipodi:linespacing="125%"><tspan
           style="fill:#ffffff;fill-opacity:1"
           id="tspan5538-5-2-8"
           y="813.13824"
           x="230.05235">Queue</tspan></text>
    </g>
    <g
       id="g6041-5-3-6"
       transform="matrix(1.2174147,0,0,1.2174147,-112.4429,-77.652657)">
      <path
         style="color:#000000;fill:none;stroke:#ffffff;stroke-width:2.63572335;stroke-linecap:butt;stroke-linejoin:miter;stroke-miterlimit:4;stroke-opacity:1;stroke-dasharray:none;stroke-dashoffset:0;marker:none;visibility:visible;display:inline;overflow:visible;enable-background:accumulate"
         id="path5057-3-3-8-2-86-6"
         d="m 553.60711,799.24994 6.7e-4,60.58372 c -3.3e-4,6.89428 -11.51218,12.50586 -25.71276,12.50586 -14.20056,0 -25.71243,-5.61158 -25.70893,-12.4848 l -10e-4,-60.61178 m 51.4234,-0.059 c 0,6.92222 -11.51113,12.5338 -25.71169,12.5338 -14.20058,0 -25.71244,-5.61158 -25.71244,-12.5338 0,-6.92222 11.51115,-12.5338 25.71173,-12.5338 14.20056,0 25.7124,5.61158 25.7124,12.5338 z"
         inkscape:connector-curvature="0" />
      <text
         style="font-size:29.11111069px;font-style:normal;font-variant:normal;font-weight:normal;font-stretch:normal;line-height:125%;letter-spacing:0px;word-spacing:0px;fill:#ffffff;fill-opacity:1;stroke:none;font-family:Monospace;-inkscape-font-specification:Monospace"
         xml:space="preserve"
         id="text5485-7-7-7"
         y="846.21796"
         x="509.57349"
         sodipodi:linespacing="125%"><tspan
           style="font-style:normal;font-variant:normal;font-weight:normal;font-stretch:normal;fill:#ffffff;fill-opacity:1;font-family:DejaVu Sans;-inkscape-font-specification:DejaVu Sans"
           id="tspan5487-8-2-3"
           y="846.21796"
           x="509.57349">S3</tspan></text>
    </g>
    <g
       transform="matrix(1.2174147,0,0,1.2174147,-136.77407,-499.31358)"
       id="g6046-3-1"
       style="fill:#c8deff;fill-opacity:1">
      <path
         inkscape:connector-curvature="0"
         d="m 505.70777,889.69233 c -21.42092,0 -39.7442,14.28116 -47.20531,34.50478 -5.35621,-2.36328 -11.30177,-3.62681 -17.54193,-3.62681 -21.03759,0 -38.54689,14.90134 -42.37532,34.65648 -2.69572,-0.66954 -5.52194,-1.00744 -8.42939,-1.00744 -18.93171,0 -34.26499,15.09594 -34.26499,33.69896 0,18.6038 15.33344,33.699 34.26499,33.699 5.9529,0 11.57043,-1.5076 16.44902,-4.1306 8.42042,8.4426 22.10277,13.9533 37.54534,13.9533 12.43839,0 23.70787,-3.5715 32.03188,-9.3693 7.15298,7.4965 17.16349,12.1398 28.25076,12.1398 14.40383,0 26.99474,-7.8603 33.85393,-19.5957 4.72249,2.656 10.0575,4.181 15.67421,4.181 19.63149,0 35.54059,-18.2222 35.54059,-40.70173 0,-21.64929 -14.77085,-39.32334 -33.39883,-40.60057 -3.15506,-26.96374 -24.52183,-47.80396 -50.3943,-47.80396 z"
         id="path4074-4-7-17"
         style="fill:none;stroke:#ffffff;stroke-width:3.26240063;stroke-linecap:round;stroke-linejoin:round;stroke-opacity:1" />
      <g
         transform="translate(370.40009,135.59866)"
         id="g5342-1-1-8"
         style="fill:#ffffff;fill-opacity:1">
        <path
           inkscape:connector-curvature="0"
           d="m 131.09203,838.77085 29.8198,0 0,29.81981 -7.50365,10 -32.31615,0 0,-32.31225 z m -10,8 31.8198,0 0,31.81981 -31.8198,0 z"
           id="rect5234-6-3-4-91"
           style="color:#000000;fill:none;stroke:#ffffff;stroke-width:2;stroke-linecap:butt;stroke-linejoin:miter;stroke-miterlimit:4;stroke-opacity:1;stroke-dashoffset:0;marker:none;visibility:visible;display:inline;overflow:visible;enable-background:accumulate" />
        <path
           inkscape:connector-curvature="0"
           d="m 152.77926,144.62967 8.06544,-8.06543"
           transform="translate(0,702.36215)"
           id="path5340-6-7-0"
           style="fill:#ffffff;fill-opacity:1;stroke:#ffffff;stroke-width:2;stroke-linecap:butt;stroke-linejoin:miter;stroke-miterlimit:4;stroke-opacity:1;stroke-dasharray:none" />
      </g>
      <g
         transform="translate(359.60898,62.042311)"
         id="g5342-5-8-4"
         style="fill:#ffffff;fill-opacity:1">
        <path
           inkscape:connector-curvature="0"
           d="m 131.09203,838.77085 29.8198,0 0,29.81981 -7.50365,10 -32.31615,0 0,-32.31225 z m -10,8 31.8198,0 0,31.81981 -31.8198,0 z"
           id="rect5234-6-7-6-7"
           style="color:#000000;fill:none;stroke:#ffffff;stroke-width:2;stroke-linecap:butt;stroke-linejoin:miter;stroke-miterlimit:4;stroke-opacity:1;stroke-dashoffset:0;marker:none;visibility:visible;display:inline;overflow:visible;enable-background:accumulate" />
        <path
           inkscape:connector-curvature="0"
           d="m 152.77926,144.62967 8.06544,-8.06543"
           transform="translate(0,702.36215)"
           id="path5340-64-4-5"
           style="fill:#ffffff;fill-opacity:1;stroke:#ffffff;stroke-width:2;stroke-linecap:butt;stroke-linejoin:miter;stroke-miterlimit:4;stroke-opacity:1;stroke-dasharray:none" />
      </g>
      <g
         transform="translate(297.76279,134.14585)"
         id="g5342-5-7-6-8"
         style="fill:#ffffff;fill-opacity:1">
        <path
           inkscape:connector-curvature="0"
           d="m 131.09203,838.77085 29.8198,0 0,29.81981 -7.50365,10 -32.31615,0 0,-32.31225 z m -10,8 31.8198,0 0,31.81981 -31.8198,0 z"
           id="rect5234-6-7-9-3-3"
           style="color:#000000;fill:none;stroke:#ffffff;stroke-width:2;stroke-linecap:butt;stroke-linejoin:miter;stroke-miterlimit:4;stroke-opacity:1;stroke-dashoffset:0;marker:none;visibility:visible;display:inline;overflow:visible;enable-background:accumulate" />
        <path
           inkscape:connector-curvature="0"
           d="m 152.77926,144.62967 8.06544,-8.06543"
           transform="translate(0,702.36215)"
           id="path5340-64-9-9-5"
           style="fill:#ffffff;fill-opacity:1;stroke:#ffffff;stroke-width:2;stroke-linecap:butt;stroke-linejoin:miter;stroke-miterlimit:4;stroke-opacity:1;stroke-dasharray:none" />
      </g>
      <text
         sodipodi:linespacing="125%"
         x="429.92096"
         y="961.85248"
         id="text6033-5-5"
         xml:space="preserve"
         style="font-size:18px;font-style:normal;font-variant:normal;font-weight:normal;font-stretch:normal;line-height:125%;letter-spacing:0px;word-spacing:0px;fill:#ffffff;fill-opacity:1;stroke:none;font-family:DejaVu Sans;-inkscape-font-specification:DejaVu Sans"><tspan
           x="429.92096"
           y="961.85248"
           id="tspan6035-2-5"
           style="fill:#ffffff;fill-opacity:1">EC2 Workers</tspan></text>
    </g>
    <path
       style="fill:none;stroke:#000000;stroke-width:1px;stroke-linecap:butt;stroke-linejoin:miter;stroke-opacity:1"
       d="M 361.42857,138.57143 152.14286,105"
       id="path4828"
       inkscape:connector-curvature="0"
       transform="translate(0,552.36218)" />
    <text
       xml:space="preserve"
       style="font-size:16px;font-style:normal;font-variant:normal;font-weight:normal;font-stretch:normal;line-height:125%;letter-spacing:0px;word-spacing:0px;fill:#000000;fill-opacity:1;stroke:none;font-family:Monospace;-inkscape-font-specification:Monospace"
       x="223.57143"
       y="98.571426"
       id="text4830"
       sodipodi:linespacing="125%"
       transform="translate(0,552.36218)"><tspan
         sodipodi:role="line"
         id="tspan4832"
         x="223.57143"
         y="98.571426">Create Artifact</tspan></text>
    <text
       xml:space="preserve"
       style="font-size:16px;font-style:normal;font-variant:normal;font-weight:normal;font-stretch:normal;line-height:125%;letter-spacing:0px;word-spacing:0px;fill:#000000;fill-opacity:1;stroke:none;font-family:Monospace;-inkscape-font-specification:Monospace"
       x="189.28571"
       y="220.71429"
       id="text4834"
       sodipodi:linespacing="125%"
       transform="translate(0,552.36218)"><tspan
         sodipodi:role="line"
         id="tspan4836"
         x="189.28571"
         y="220.71429">Signed PUT URL</tspan></text>
  </g>
</svg>
