<!--?xml version="1.0" encoding="UTF-8" standalone="no"?-->

<!-- Generated by graphviz version 2.28.0 (20110507.0327)
 -->
<!-- Title: Kinds Pages: 1 -->
<svg width="604pt" height="247pt" viewBox="0.00 0.00 604.00 246.70" xmlns="http://www.w3.org/2000/svg" xmlns:xlink="http://www.w3.org/1999/xlink">
<g id="graph1" class="graph" transform="scale(1 1) rotate(0) translate(4 242.698)">
<title>Kinds</title>
<polygon fill="white" stroke="white" points="-4,5 -4,-242.698 601,-242.698 601,5 -4,5"></polygon>
<!-- docker&#45;image -->
<g id="node1" class="node"><title>docker-image</title>
<ellipse fill="none" stroke="black" cx="522" cy="-107.698" rx="73.5149" ry="19.4695"></ellipse>
<text text-anchor="middle" x="522" y="-102.898" font-family="Times,serif" font-size="16.00">docker-image</text>
</g>
<!-- toolchain -->
<g id="node2" class="node"><title>toolchain</title>
<ellipse fill="none" stroke="black" cx="522" cy="-219.698" rx="53.3355" ry="19.4695"></ellipse>
<text text-anchor="middle" x="522" y="-214.898" font-family="Times,serif" font-size="16.00">toolchain</text>
</g>
<!-- gradle -->
<g id="node3" class="node"><title>gradle</title>
<ellipse fill="none" stroke="black" cx="522" cy="-163.698" rx="39.6645" ry="19.4695"></ellipse>
<text text-anchor="middle" x="522" y="-158.898" font-family="Times,serif" font-size="16.00">gradle</text>
</g>
<!-- vcs -->
<g id="node4" class="node"><title>vcs</title>
<ellipse fill="none" stroke="black" cx="522" cy="-34.6984" rx="27" ry="19.4695"></ellipse>
<text text-anchor="middle" x="522" y="-29.8984" font-family="Times,serif" font-size="16.00">vcs</text>
</g>
<!-- compile -->
<g id="node5" class="node"><title>compile</title>
<ellipse fill="none" stroke="black" cx="364" cy="-159.698" rx="47.5228" ry="19.4695"></ellipse>
<text text-anchor="middle" x="364" y="-154.898" font-family="Times,serif" font-size="16.00">compile</text>
</g>
<!-- compile&#45;&gt;docker&#45;image -->
<g id="0" class="edge"><title>compile-&gt;docker-image</title>
<path fill="none" stroke="black" d="M401.182,-147.638C420.539,-141.185 444.775,-133.107 466.375,-125.907"></path>
<polygon fill="black" stroke="black" points="467.708,-129.152 476.088,-122.669 465.494,-122.511 467.708,-129.152"></polygon>
</g>
<!-- compile&#45;&gt;toolchain -->
<g id="1" class="edge"><title>compile-&gt;toolchain</title>
<path fill="none" stroke="black" d="M398.916,-172.79C413.951,-178.589 431.856,-185.49 448,-191.698 456.933,-195.134 466.483,-198.801 475.632,-202.311"></path>
<polygon fill="black" stroke="black" points="474.389,-205.583 484.979,-205.896 476.896,-199.047 474.389,-205.583"></polygon>
</g>
<!-- compile&#45;&gt;gradle -->
<g id="2" class="edge"><title>compile-&gt;gradle</title>
<path fill="none" stroke="black" d="M411.805,-160.899C430.9,-161.388 452.981,-161.954 472.269,-162.449"></path>
<polygon fill="black" stroke="black" points="472.278,-165.95 482.365,-162.708 472.458,-158.953 472.278,-165.95"></polygon>
</g>
<!-- compile&#45;&gt;vcs -->
<g id="3" class="edge"><title>compile-&gt;vcs</title>
<path fill="none" stroke="black" d="M381.499,-141.7C397.58,-124.682 423.172,-98.9561 448,-79.6984 461.477,-69.245 477.512,-59.1356 491.115,-51.1559"></path>
<polygon fill="black" stroke="black" points="493.163,-54.0158 500.083,-45.9936 489.671,-47.949 493.163,-54.0158"></polygon>
</g>
<!-- make&#45;check -->
<g id="node6" class="node"><title>make-check</title>
<ellipse fill="none" stroke="black" cx="214" cy="-163.698" rx="65.9247" ry="19.4695"></ellipse>
<text text-anchor="middle" x="214" y="-158.898" font-family="Times,serif" font-size="16.00">make-check</text>
</g>
<!-- make&#45;check&#45;&gt;docker&#45;image -->
<g id="4" class="edge"><title>make-check-&gt;docker-image</title>
<path fill="none" stroke="black" d="M250.656,-179.78C291.91,-195.831 360.728,-214.562 412,-187.698 436.898,-174.653 425.894,-153.06 448,-135.698 452.582,-132.1 457.68,-128.921 462.991,-126.122"></path>
<polygon fill="black" stroke="black" points="464.576,-129.244 472.079,-121.763 461.549,-122.932 464.576,-129.244"></polygon>
</g>
<!-- make&#45;check&#45;&gt;compile -->
<g id="5" class="edge"><title>make-check-&gt;compile</title>
<path fill="none" stroke="black" d="M279.915,-161.944C288.529,-161.711 297.309,-161.474 305.78,-161.245"></path>
<polygon fill="black" stroke="black" points="306.025,-164.74 315.927,-160.971 305.836,-157.742 306.025,-164.74"></polygon>
</g>
<!-- lint -->
<g id="node7" class="node"><title>lint</title>
<ellipse fill="none" stroke="black" cx="364" cy="-65.6984" rx="27" ry="19.4695"></ellipse>
<text text-anchor="middle" x="364" y="-60.8984" font-family="Times,serif" font-size="16.00">lint</text>
</g>
<!-- lint&#45;&gt;docker&#45;image -->
<g id="7" class="edge"><title>lint-&gt;docker-image</title>
<path fill="none" stroke="black" d="M389.375,-72.2609C408.439,-77.3936 435.787,-84.7564 460.62,-91.4423"></path>
<polygon fill="black" stroke="black" points="459.785,-94.8421 470.351,-94.0622 461.605,-88.0828 459.785,-94.8421"></polygon>
</g>
<!-- lint&#45;&gt;vcs -->
<g id="6" class="edge"><title>lint-&gt;vcs</title>
<path fill="none" stroke="black" d="M390.411,-60.6488C416.324,-55.4993 456.733,-47.4695 485.736,-41.706"></path>
<polygon fill="black" stroke="black" points="486.732,-45.0766 495.858,-39.6946 485.368,-38.2109 486.732,-45.0766"></polygon>
</g>
<!-- test&#45;zip -->
<g id="node8" class="node"><title>test-zip</title>
<ellipse fill="none" stroke="black" cx="214" cy="-51.6984" rx="44.727" ry="19.4695"></ellipse>
<text text-anchor="middle" x="214" y="-46.8984" font-family="Times,serif" font-size="16.00">test-zip</text>
</g>
<!-- test&#45;zip&#45;&gt;vcs -->
<g id="11" class="edge"><title>test-zip-&gt;vcs</title>
<path fill="none" stroke="black" d="M240.466,-36.0369C260.25,-24.8345 288.808,-10.7156 316,-4.69844 376.058,8.59113 447.354,-9.26083 488.075,-22.5794"></path>
<polygon fill="black" stroke="black" points="487.15,-25.961 497.744,-25.8461 489.39,-19.3293 487.15,-25.961"></polygon>
</g>
<!-- assemble -->
<g id="node9" class="node"><title>assemble</title>
<ellipse fill="none" stroke="black" cx="214" cy="-107.698" rx="52.5646" ry="19.4695"></ellipse>
<text text-anchor="middle" x="214" y="-102.898" font-family="Times,serif" font-size="16.00">assemble</text>
</g>
<!-- assemble&#45;&gt;docker&#45;image -->
<g id="8" class="edge"><title>assemble-&gt;docker-image</title>
<path fill="none" stroke="black" d="M266.909,-107.698C313.862,-107.698 383.805,-107.698 438.429,-107.698"></path>
<polygon fill="black" stroke="black" points="438.441,-111.199 448.441,-107.698 438.441,-104.199 438.441,-111.199"></polygon>
</g>
<!-- assemble&#45;&gt;vcs -->
<g id="9" class="edge"><title>assemble-&gt;vcs</title>
<path fill="none" stroke="black" d="M253.019,-94.7534C262.3,-90.6897 271.885,-85.6706 280,-79.6984 299.801,-65.1256 293.74,-48.1348 316,-37.6984 371.08,-11.8752 443.985,-19.1946 486.366,-26.9134"></path>
<polygon fill="black" stroke="black" points="485.717,-30.3526 496.199,-28.8124 487.044,-23.4796 485.717,-30.3526"></polygon>
</g>
<!-- assemble&#45;&gt;compile -->
<g id="10" class="edge"><title>assemble-&gt;compile</title>
<path fill="none" stroke="black" d="M252.73,-120.955C272.618,-127.942 297.149,-136.562 318.021,-143.895"></path>
<polygon fill="black" stroke="black" points="317.034,-147.258 327.629,-147.271 319.355,-140.654 317.034,-147.258"></polygon>
</g>
<!-- mochitest -->
<g id="node10" class="node"><title>mochitest</title>
<ellipse fill="none" stroke="black" cx="56" cy="-163.698" rx="55.1103" ry="19.4695"></ellipse>
<text text-anchor="middle" x="56" y="-158.898" font-family="Times,serif" font-size="16.00">mochitest</text>
</g>
<!-- mochitest&#45;&gt;make&#45;check -->
<g id="14" class="edge"><title>mochitest-&gt;make-check</title>
<path fill="none" stroke="black" d="M111.561,-163.698C120.116,-163.698 129.084,-163.698 138.001,-163.698"></path>
<polygon fill="black" stroke="black" points="138.021,-167.199 148.021,-163.698 138.021,-160.199 138.021,-167.199"></polygon>
</g>
<!-- mochitest&#45;&gt;test&#45;zip -->
<g id="12" class="edge"><title>mochitest-&gt;test-zip</title>
<path fill="none" stroke="black" d="M92.5274,-149.116C99.424,-145.351 106.278,-140.873 112,-135.698 133.946,-115.853 125.429,-98.8298 148,-79.6984 153.8,-74.7826 160.593,-70.6074 167.561,-67.1019"></path>
<polygon fill="black" stroke="black" points="169.463,-70.0802 177.094,-62.7302 166.545,-63.7174 169.463,-70.0802"></polygon>
</g>
<!-- mochitest&#45;&gt;assemble -->
<g id="13" class="edge"><title>mochitest-&gt;assemble</title>
<path fill="none" stroke="black" d="M95.1619,-149.999C116.63,-142.293 143.602,-132.611 166.322,-124.455"></path>
<polygon fill="black" stroke="black" points="167.541,-127.736 175.77,-121.063 165.176,-121.147 167.541,-127.736"></polygon>
</g>
<!-- unittest -->
<g id="node11" class="node"><title>unittest</title>
<ellipse fill="none" stroke="black" cx="56" cy="-107.698" rx="44.7519" ry="19.4695"></ellipse>
<text text-anchor="middle" x="56" y="-102.898" font-family="Times,serif" font-size="16.00">unittest</text>
</g>
<!-- unittest&#45;&gt;make&#45;check -->
<g id="17" class="edge"><title>unittest-&gt;make-check</title>
<path fill="none" stroke="black" d="M90.8497,-119.85C111.721,-127.342 138.881,-137.092 162.289,-145.494"></path>
<polygon fill="black" stroke="black" points="161.13,-148.797 171.724,-148.881 163.495,-142.209 161.13,-148.797"></polygon>
</g>
<!-- unittest&#45;&gt;test&#45;zip -->
<g id="15" class="edge"><title>unittest-&gt;test-zip</title>
<path fill="none" stroke="black" d="M90.8497,-95.5473C113.95,-87.255 144.753,-76.1974 169.647,-67.261"></path>
<polygon fill="black" stroke="black" points="170.987,-70.4988 179.216,-63.8259 168.622,-63.9104 170.987,-70.4988"></polygon>
</g>
<!-- unittest&#45;&gt;assemble -->
<g id="16" class="edge"><title>unittest-&gt;assemble</title>
<path fill="none" stroke="black" d="M100.87,-107.698C116.393,-107.698 134.162,-107.698 150.91,-107.698"></path>
<polygon fill="black" stroke="black" points="151.176,-111.199 161.176,-107.698 151.176,-104.199 151.176,-111.199"></polygon>
</g>
<!-- talos -->
<g id="node12" class="node"><title>talos</title>
<ellipse fill="none" stroke="black" cx="56" cy="-51.6984" rx="32.8626" ry="19.4695"></ellipse>
<text text-anchor="middle" x="56" y="-46.8984" font-family="Times,serif" font-size="16.00">talos</text>
</g>
<!-- talos&#45;&gt;make&#45;check -->
<g id="20" class="edge"><title>talos-&gt;make-check</title>
<path fill="none" stroke="black" d="M83.9633,-61.9474C93.5158,-66.4341 103.894,-72.3681 112,-79.6984 133.946,-99.5437 125.429,-116.567 148,-135.698 151.884,-138.991 156.214,-141.951 160.743,-144.6"></path>
<polygon fill="black" stroke="black" points="159.16,-147.722 169.634,-149.316 162.441,-141.538 159.16,-147.722"></polygon>
</g>
<!-- talos&#45;&gt;test&#45;zip -->
<g id="18" class="edge"><title>talos-&gt;test-zip</title>
<path fill="none" stroke="black" d="M88.9454,-51.6984C109.134,-51.6984 135.736,-51.6984 159.127,-51.6984"></path>
<polygon fill="black" stroke="black" points="159.27,-55.1985 169.27,-51.6984 159.27,-48.1985 159.27,-55.1985"></polygon>
</g>
<!-- talos&#45;&gt;assemble -->
<g id="19" class="edge"><title>talos-&gt;assemble</title>
<path fill="none" stroke="black" d="M84.1731,-61.4529C106.798,-69.5745 139.527,-81.3235 166.334,-90.9466"></path>
<polygon fill="black" stroke="black" points="165.318,-94.3005 175.913,-94.3851 167.683,-87.7122 165.318,-94.3005"></polygon>
</g>
</g>
</svg>
